<svg xmlns="http://www.w3.org/2000/svg" width="20" height="20"><path d="M8.46 16.91a8.41 8.41 0 004.89-1.57l4.24 4.25a1.424 1.424 0 001 .41 1.442 1.442 0 001-.41 1.418 1.418 0 000-2l-4.24-4.25a8.34 8.34 0 001.57-4.89 8.46 8.46 0 10-8.46 8.46zm0-14.09a5.644 5.644 0 015.64 5.63 5.557 5.557 0 01-1.05 3.26l-.55.78-.78.56A5.636 5.636 0 118.46 2.82zM5.01 8.63a3.613 3.613 0 013.62-3.59.459.459 0 00.46-.46.45.45 0 00-.46-.45 4.52 4.52 0 00-4.53 4.5.459.459 0 00.46.46.45.45 0 00.45-.46z" fill="#fff" fill-rule="evenodd"/></svg>